<?xml version="1.0" encoding="utf-8"?>
<!-- Generator: Adobe Illustrator 22.1.0, SVG Export Plug-In . SVG Version: 6.00 Build 0)  -->
<svg version="1.1" id="Layer_1" xmlns="http://www.w3.org/2000/svg" xmlns:xlink="http://www.w3.org/1999/xlink" x="0px" y="0px"
	 viewBox="0 0 64 64" style="enable-background:new 0 0 64 64;" xml:space="preserve">
<style type="text/css">
	.darkmode{fill:#cccccc;}
</style>
<g id="icon">
	<path d="M32,11.7c1.2,0,2.1-1,2.1-2.1V2.1C34.1,1,33.2,0,32,0c-1.2,0-2.1,1-2.1,2.1v7.5C29.9,10.8,30.8,11.7,32,11.7z"/>
	<path d="M32,14.9c-9.4,0-17.1,7.6-17.1,17.1c0,9.4,7.6,17.1,17.1,17.1S49.1,41.4,49.1,32C49.1,22.6,41.4,14.9,32,14.9z M32,45.9
		V18.1c7.7,0,13.9,6.2,13.9,13.9C45.9,39.7,39.7,45.9,32,45.9z"/>
	<path d="M32,52.3c-1.2,0-2.1,1-2.1,2.1v5.3v2.1c0,1.2,1,2.1,2.1,2.1c1.2,0,2.1-1,2.1-2.1v-2.1v-5.3C34.1,53.2,33.2,52.3,32,52.3z"
		/>
	<path d="M46.3,17.7c0.8,0.8,2.2,0.8,3,0l5.3-5.3c0.8-0.8,0.8-2.2,0-3c-0.8-0.8-2.2-0.8-3,0l-5.3,5.3C45.5,15.5,45.5,16.8,46.3,17.7
		L46.3,17.7z"/>
	<path d="M17.7,46.3c-0.8-0.8-2.2-0.8-3,0l-5.3,5.3c-0.8,0.8-0.8,2.2,0,3c0.8,0.8,2.2,0.8,3,0l5.3-5.3
		C18.5,48.5,18.5,47.2,17.7,46.3L17.7,46.3z"/>
	<path d="M14.7,17.7c0.8,0.8,2.2,0.8,3,0h0c0.8-0.8,0.8-2.2,0-3l-5.3-5.3c-0.8-0.8-2.2-0.8-3,0c-0.8,0.8-0.8,2.2,0,3L14.7,17.7z"/>
	<path d="M49.3,46.3c-0.8-0.8-2.2-0.8-3,0h0c-0.8,0.8-0.8,2.2,0,3l5.3,5.3c0.8,0.8,2.2,0.8,3,0c0.8-0.8,0.8-2.2,0-3L49.3,46.3z"/>
	<path d="M61.9,29.9h-7.5c-1.2,0-2.1,1-2.1,2.1c0,1.2,1,2.1,2.1,2.1h7.5c1.2,0,2.1-1,2.1-2.1C64,30.8,63,29.9,61.9,29.9z"/>
	<path d="M11.7,32c0-1.2-1-2.1-2.1-2.1H2.1C1,29.9,0,30.8,0,32c0,1.2,1,2.1,2.1,2.1h7.5C10.8,34.1,11.7,33.2,11.7,32z"/>
</g>
</svg>
