<?xml version="1.0" encoding="utf-8"?>
<!-- Generator: Adobe Illustrator 22.1.0, SVG Export Plug-In . SVG Version: 6.00 Build 0)  -->
<svg version="1.1" id="Layer_1" xmlns="http://www.w3.org/2000/svg" xmlns:xlink="http://www.w3.org/1999/xlink" x="0px" y="0px"
	 viewBox="0 0 512 501.1" style="enable-background:new 0 0 512 501.1;" xml:space="preserve">
<style type="text/css">
	.st0{fill:#787878;}
</style>
<path class="st0" d="M410,239.2h0.6v-84.6C410.6,69.2,341.4,0,256,0h0c-85.4,0-154.6,69.2-154.6,154.6v84.6h0.6
	c-19.8,0-35.8,16-35.8,35.8v190.3c0,19.8,16,35.8,35.8,35.8h308c19.8,0,35.8-16,35.8-35.8V275C445.8,255.3,429.7,239.2,410,239.2z
	 M277.5,374.6v25.6c0,11.9-9.6,21.5-21.5,21.5h0c-11.9,0-21.5-9.6-21.5-21.5v-25.6c-9.6-6.8-15.9-18-15.9-30.6
	c0-20.7,16.8-37.4,37.4-37.4c20.7,0,37.4,16.8,37.4,37.4C293.4,356.6,287.2,367.8,277.5,374.6z M360,239.2H152v-84.5
	c0-57.4,46.5-104,104-104h0c57.4,0,104,46.5,104,104V239.2z"/>
</svg>
