<?xml version="1.0" encoding="utf-8"?>
<!-- Generator: Adobe Illustrator 22.1.0, SVG Export Plug-In . SVG Version: 6.00 Build 0)  -->
<svg version="1.1" id="Layer_1" xmlns="http://www.w3.org/2000/svg" xmlns:xlink="http://www.w3.org/1999/xlink" x="0px" y="0px"
	 viewBox="0 0 512.1 512" style="enable-background:new 0 0 512.1 512;" xml:space="preserve">
<style type="text/css">
	.st0{fill:#C03A2C;}
</style>
<g>
	<path class="st0" d="M358.6,188.7l-8.3-2c-8-1.9-14.8-4.8-14.6-11.5c0-6,5.3-10.3,14.8-10.3c9.3,0,15.1,4.2,15.8,11.5h18.7
		c-0.3-16.5-13.8-27.9-34.4-27.9c-20.3,0-35.1,11.2-35,28c0,13.6,9.6,21.4,25.2,25.2l10.1,2.5c10.1,2.4,15.7,5.3,15.7,11.6
		c0,6.8-6.5,11.4-16.4,11.4c-10.2,0-17.5-4.7-18.1-13.9h-18.9c0.5,20,14.8,30.3,37.2,30.3c22.6,0,35.8-10.8,35.9-27.7
		C386.3,200.5,374.7,192.3,358.6,188.7z"/>
	<path class="st0" d="M256.8,149.8h-33v92.4h32.8c28.2,0,45.2-17.4,45.2-46.3C301.8,167.2,284.7,149.8,256.8,149.8z M255.7,225.5
		h-12.4v-58.9h12.5c17.3,0,26.5,8.8,26.5,29.4C282.3,216.6,273.1,225.5,255.7,225.5z"/>
	<path class="st0" d="M155.6,149.8l-31.9,92.4h20.9l6.9-21.1h33.4l6.9,21.1h20.9l-31.9-92.4H155.6z M156.5,205.9l11.4-35h0.7
		l11.4,35H156.5z"/>
	<path class="st0" d="M256,0C115-0.1,2.1,113.7,0,251.7C-2.2,396,113.9,511.2,254.3,512c142.9,0.8,257.1-114.4,257.8-254.6
		C512.8,114.4,396.7-0.4,256,0z M256.1,382.2c0,8.6-7,15.6-15.6,15.6H108.9c-8.6,0-15.6-7-15.6-15.6v-5.6c0-8.6,7-15.6,15.6-15.6
		h131.5c8.6,0,15.6,7,15.6,15.6V382.2z M256.1,322.9c0,8.6-7,15.6-15.6,15.6H108.9c-8.6,0-15.6-7-15.6-15.6v-5.6
		c0-8.6,7-15.6,15.6-15.6h131.5c8.6,0,15.6,7,15.6,15.6V322.9z M418.8,382.2c0,8.6-7,15.6-15.6,15.6H298.7c-8.6,0-15.6-7-15.6-15.6
		v-64.9c0-8.6,7-15.6,15.6-15.6h104.5c8.6,0,15.6,7,15.6,15.6V382.2z M418.8,260.8c0,10.2-8.3,18.4-18.4,18.4H111.7
		c-10.2,0-18.4-8.3-18.4-18.4V131.3c0-10.2,8.3-18.4,18.4-18.4h288.7c10.2,0,18.4,8.3,18.4,18.4V260.8z"/>
</g>
</svg>
