<?xml version="1.0" encoding="utf-8"?>
<!-- Generator: Adobe Illustrator 22.1.0, SVG Export Plug-In . SVG Version: 6.00 Build 0)  -->
<svg version="1.1" id="Layer_1" xmlns="http://www.w3.org/2000/svg" xmlns:xlink="http://www.w3.org/1999/xlink" x="0px" y="0px"
	 viewBox="0 0 512.1 512" style="enable-background:new 0 0 512.1 512;" xml:space="preserve">
<style type="text/css">
	.st0{fill:#F1C40F;}
</style>
<path class="st0" d="M256,0C115-0.1,2.1,113.7,0,251.7C-2.2,396,113.9,511.2,254.3,512c142.9,0.8,257.1-114.4,257.8-254.6
	C512.8,114.4,396.7-0.4,256,0z M165.7,392.7c-55.8,0-100.6-21.2-101.1-52v-19.5c0.9,1.4,1.9,2.7,3,4c14.5,24.4,46.2,40,98.1,40
	c42.9,0,79.8-14.7,94.4-35.5c0.3-0.3,0.6-0.6,0.9-0.8c2.1-2.1,4-4.4,5.6-6.7c0.1,6,0.2,12.2,0.2,18.5
	C267.1,371.5,221.5,392.7,165.7,392.7z M165.7,351.3c-55.8,0-100.6-21.2-101.1-52v-18.2c1.9,3,4.3,5.8,6.9,8.6
	c15.9,21,46.5,34.1,94.2,34.1c39.4,0,73.8-12.4,90.4-30.6c4.2-3.7,7.7-7.6,10.4-11.8c0.1,5.8,0.1,11.7,0.2,17.8
	C267.1,330.1,221.5,351.3,165.7,351.3z M165.6,314.1c-55.8,0-101.1-25-101.1-55.7c0-30.8,45.3-55.7,101.1-55.7
	c55.8,0,101.1,25,101.1,55.7C266.7,289.1,221.4,314.1,165.6,314.1z M319.8,364.4c-18.3,0-35.3-2.3-50-6.4c2.7-5.5,4.1-11.4,4-17.4
	l-0.1-8.3c0-0.2,0-0.4,0-0.6c13.1,3.3,28.4,5.2,46.1,5.2c44.4,0,82.4-15.8,95.9-37.8c1.9-1.9,3.5-4,5-6c0.1,6.2,0.2,12.7,0.2,19.3
	C421.3,343.2,375.6,364.4,319.8,364.4z M319.8,322.2c-16.7,0-32.5-1.9-46.3-5.4c0-0.8,0-1.6,0-2.5c0-1.4-0.5-2.8-1.3-3.9
	c1.1-3.7,1.7-7.4,1.6-11.2l-0.1-8.3c0-0.4,0-0.9,0-1.3c13.1,3.3,28.4,5.2,46.1,5.2c36.5,0,68.7-10.7,86.5-26.7
	c3.3-2.3,6.2-4.8,8.8-7.4c2.1-2.2,4-4.4,5.6-6.7c0.1,5.3,0.1,10.7,0.2,16.3C421.3,301,375.6,322.2,319.8,322.2z M319.8,283.1
	c-16.7,0-32.4-1.9-46.3-5.4c0-1.6,0-3.2-0.1-4.8c0-1.4-0.5-2.7-1.2-3.8c1-3.5,1.5-7.1,1.5-10.8c0-2.7-0.3-5.4-0.8-8
	c13.3,3.5,28.8,5.3,46.8,5.3c42.9,0,79.8-14.7,94.4-35.5c0.3-0.3,0.6-0.6,0.9-0.8c2.1-2.1,4-4.4,5.6-6.7c0.1,6,0.2,12.2,0.2,18.5
	C421.3,261.9,375.6,283.1,319.8,283.1z M319.8,241.7c-19.9,0-38.5-2.7-54.1-7.6c-5.6-8-14.1-15.3-25.2-21.4
	c-5.5-3-11.4-5.6-17.7-7.9c-2.6-4.7-4-9.8-4.1-15.1v-18.2c1.9,3,4.2,5.8,6.9,8.6c15.9,21,46.5,34.1,94.2,34.1
	c39.4,0,73.8-12.4,90.4-30.6c4.2-3.7,7.7-7.6,10.4-11.8c0.1,5.8,0.1,11.7,0.2,17.8C421.3,220.5,375.6,241.7,319.8,241.7z
	 M319.8,204.5c-55.8,0-101.1-25-101.1-55.7S263.9,93,319.8,93s101.1,25,101.1,55.7S375.6,204.5,319.8,204.5z"/>
</svg>
