<?xml version="1.0" encoding="utf-8"?>
<!-- Generator: Adobe Illustrator 22.1.0, SVG Export Plug-In . SVG Version: 6.00 Build 0)  -->
<svg version="1.1" id="Layer_1" xmlns="http://www.w3.org/2000/svg" xmlns:xlink="http://www.w3.org/1999/xlink" x="0px" y="0px"
	 viewBox="0 0 512 512" style="enable-background:new 0 0 512 512;" xml:space="preserve">
<style type="text/css">
	.st0{fill:#67DBEC;}
	.st1{fill:#FFFFFF;}
</style>
<path class="st0" d="M256.1,0C115.1-0.1,2.2,113.7,0.1,251.7C-2.1,396,114,511.2,254.4,512c142.9,0.8,257.1-114.4,257.8-254.6
	C512.9,114.4,396.8-0.4,256.1,0z M336,348.2c-6.5,12-16.1,20.8-28.1,27.2c-9.3,4.9-19.1,8.1-29.4,10c-0.6,0.1-1.2,0.4-1.9,0.6
	c0,14.4,0,28.6,0,43c-13.6,0-27.1,0-40.8,0c0-13.4,0-26.8,0-40.2c-4.5-0.3-8.9-0.5-13.2-0.9c-17.7-1.6-35-4.7-51.3-12.4
	c-1.6-0.7-2.1-1.5-2.1-3.3c0.1-18.2,0.1-36.3,0.1-54.9c1.6,1.3,3.1,2.3,4.5,3.4c15.3,11.8,32.7,18.9,51.8,21.6
	c12,1.7,24.1,1.7,35.9-1.6c5.2-1.4,10.1-3.6,14.3-7.1c8.9-7.6,10.3-20,3.5-29.5c-5.1-7-12-11.9-19.6-15.7
	c-11.1-5.4-22.4-10.3-33.7-15.3c-11.7-5.1-22.9-11.1-32.7-19.4c-13.3-11.2-21.9-25.1-24.3-42.5c-1.9-14.1-1-27.8,4.7-41
	c7.1-16.2,19.3-27.3,35-35c8.1-3.9,16.5-6.7,25.3-8.3c1.7-0.3,1.9-0.9,1.8-2.6c-0.2-3.6-0.1-7.3-0.1-10.9c0-9.4,0-18.7,0-28.1
	c0-0.8,0-1.5,0-2.4c13.7,0,27.2,0,40.9,0c0,13.5,0,26.8,0,40.2c5,0.3,9.7,0.6,14.5,1c13.9,1,27.4,3.6,40.5,8.5
	c0.6,0.2,1.4,1.1,1.4,1.7c0.1,17.3,0.1,34.6,0.1,52.2c-3.2-1.8-6.2-3.7-9.3-5.3c-12-6.2-24.7-9.8-38.1-11.5
	c-7.8-1-15.7-1.3-23.5-0.3c-10.1,1.2-19.8,3.7-27.3,11.3c-7.3,7.4-7.7,19-1.3,27.2c4.6,5.8,10.4,10.1,16.9,13.3
	c10.1,5,20.4,9.6,30.6,14.2c12.2,5.5,24.2,11.3,34.9,19.5c14.5,11,24.5,24.9,27.3,43.2C345.7,315.4,344.5,332.4,336,348.2z"/>
<g>
	<path class="st1" d="M370.7,434c-10.9,0-21.3-4.7-28.6-12.8L102.3,153.5c-14.1-15.8-12.8-40.1,3-54.2c7.1-6.3,16.1-9.8,25.6-9.8
		c10.9,0,21.3,4.7,28.6,12.8L399.3,370c14.1,15.8,12.8,40.1-3,54.2C389.3,430.5,380.2,434,370.7,434z"/>
	<path class="st0" d="M130.8,93.7c9.4,0,18.7,3.8,25.4,11.4l239.9,267.8c12.6,14,11.4,35.6-2.7,48.2l0,0c-6.5,5.8-14.7,8.7-22.8,8.7
		c-9.4,0-18.7-3.8-25.4-11.4L105.4,150.7c-12.6-14-11.4-35.6,2.7-48.2l0,0C114.6,96.6,122.7,93.7,130.8,93.7 M130.8,85.2v8.5V85.2
		L130.8,85.2c-10.5,0-20.6,3.9-28.4,10.9c-17.5,15.7-19,42.7-3.3,60.2l239.9,267.8c8.1,9,19.7,14.2,31.8,14.2
		c10.5,0,20.6-3.9,28.4-10.9c17.5-15.7,19-42.7,3.3-60.2L162.6,99.4C154.5,90.4,143,85.2,130.8,85.2L130.8,85.2z"/>
</g>
</svg>
