<?xml version="1.0" encoding="utf-8"?>
<!-- Generator: Adobe Illustrator 22.1.0, SVG Export Plug-In . SVG Version: 6.00 Build 0)  -->
<svg version="1.1" id="Layer_1" xmlns="http://www.w3.org/2000/svg" xmlns:xlink="http://www.w3.org/1999/xlink" x="0px" y="0px"
	 viewBox="0 0 512.1 512" style="enable-background:new 0 0 512.1 512;" xml:space="preserve">
<style type="text/css">
	.st0{fill:#3FA652;}
	.st1{fill:#21552A;}
	.st2{fill:#25AF60;}
	.st3{fill:#F1C40F;}
	.st4{fill:#C03A2C;}
	.st5{fill:#F39C13;}
</style>
<path class="st3" d="M256,0C115-0.1,2.1,113.7,0,251.7C-2.2,396,113.9,511.2,254.3,512c142.9,0.8,257.1-114.4,257.8-254.6
	C512.8,114.4,396.7-0.4,256,0z M335.9,348.2c-6.5,12-16.1,20.8-28.1,27.2c-9.3,4.9-19.1,8.1-29.4,10c-0.6,0.1-1.2,0.4-1.9,0.6
	c0,14.4,0,28.6,0,43c-13.6,0-27.1,0-40.8,0c0-13.4,0-26.8,0-40.2c-4.5-0.3-8.9-0.5-13.2-0.9c-17.7-1.6-35-4.7-51.3-12.4
	c-1.6-0.7-2.1-1.5-2.1-3.3c0.1-18.2,0.1-36.3,0.1-54.9c1.6,1.3,3.1,2.3,4.5,3.4c15.3,11.8,32.7,18.9,51.8,21.6
	c12,1.7,24.1,1.7,35.9-1.6c5.2-1.4,10.1-3.6,14.3-7.1c8.9-7.6,10.3-20,3.5-29.5c-5.1-7-12-11.9-19.6-15.7
	c-11.1-5.4-22.4-10.3-33.7-15.3c-11.7-5.1-22.9-11.1-32.7-19.4c-13.3-11.2-21.9-25.1-24.3-42.5c-1.9-14.1-1-27.8,4.7-41
	c7.1-16.2,19.3-27.3,35-35c8.1-3.9,16.5-6.7,25.3-8.3c1.7-0.3,1.9-0.9,1.8-2.6c-0.2-3.6-0.1-7.3-0.1-10.9c0-9.4,0-18.7,0-28.1
	c0-0.8,0-1.5,0-2.4c13.7,0,27.2,0,40.9,0c0,13.5,0,26.8,0,40.2c5,0.3,9.7,0.6,14.5,1c13.9,1,27.4,3.6,40.5,8.5
	c0.6,0.2,1.4,1.1,1.4,1.7c0.1,17.3,0.1,34.6,0.1,52.2c-3.2-1.8-6.2-3.7-9.3-5.3c-12-6.2-24.7-9.8-38.1-11.5
	c-7.8-1-15.7-1.3-23.5-0.3c-10.1,1.2-19.8,3.7-27.3,11.3c-7.3,7.4-7.7,19-1.3,27.2c4.6,5.8,10.4,10.1,16.9,13.3
	c10.1,5,20.4,9.6,30.6,14.2c12.2,5.5,24.2,11.3,34.9,19.5c14.5,11,24.5,24.9,27.3,43.2C345.6,315.4,344.4,332.4,335.9,348.2z"/>
</svg>
