<?xml version="1.0" encoding="utf-8"?>
<!-- Generator: Adobe Illustrator 22.1.0, SVG Export Plug-In . SVG Version: 6.00 Build 0)  -->
<svg version="1.1" id="Layer_1" xmlns="http://www.w3.org/2000/svg" xmlns:xlink="http://www.w3.org/1999/xlink" x="0px" y="0px"
	 viewBox="0 0 512 512" style="enable-background:new 0 0 512 512;" xml:space="preserve">
<style type="text/css">
	.st0{fill:none;}
	.st1{fill:#67DBEC;}
</style>
<g>
	<path class="st0" d="M235.2,180.4c7.5-7.4,17-9.8,27-11c7.8-1,15.7-0.7,23.5,0.3c13.4,1.7,26.1,5.3,38.1,11.5
		c3.1,1.6,6.1,3.5,9.3,5.3c0-17.6,0-34.9-0.1-52.2c0-0.6-0.8-1.5-1.4-1.7c-13.1-4.9-26.6-7.5-40.5-8.5c-4.8-0.4-9.5-0.7-14.5-1
		c0-13.4,0-26.7,0-40.2c-13.7,0-27.2,0-40.9,0c0,0.9,0,1.6,0,2.4c0,9.4,0,18.7,0,28.1c0,3.6-0.1,7.3,0.1,10.9
		c0.1,1.7-0.1,2.3-1.8,2.6c-8.8,1.6-17.2,4.4-25.3,8.3c-3.3,1.6-6.4,3.4-9.3,5.3L235.2,180.4z"/>
	<path class="st0" d="M263.7,340c-0.7,0.2-1.5,0.5-2.2,0.7c-11.8,3.3-23.9,3.3-35.9,1.6c-19.1-2.7-36.5-9.8-51.8-21.6
		c-1.4-1.1-2.9-2.1-4.5-3.4c0,18.6,0,36.7-0.1,54.9c0,1.8,0.5,2.6,2.1,3.3c16.3,7.7,33.6,10.8,51.3,12.4c4.3,0.4,8.7,0.6,13.2,0.9
		c0,13.4,0,26.8,0,40.2c13.7,0,27.2,0,40.8,0c0-14.4,0-28.6,0-43c0.7-0.2,1.3-0.5,1.9-0.6c7.1-1.3,13.9-3.2,20.5-5.9L263.7,340z"/>
	<path class="st0" d="M316,254.9c-9-6.9-19-12.1-29.2-16.9l57,63.6c-0.1-1.2-0.3-2.3-0.4-3.5C340.5,279.8,330.5,265.9,316,254.9z"/>
	<path class="st1" d="M256.1,0C115.1-0.1,2.2,113.7,0.1,251.7C-2.1,396,114,511.2,254.4,512c142.9,0.8,257.1-114.4,257.8-254.6
		C512.9,114.4,396.8-0.4,256.1,0z M393.4,421.1c-6.5,5.8-14.7,8.7-22.8,8.7c-9.4,0-18.7-3.8-25.4-11.4L105.4,150.7
		c-12.6-14-11.4-35.6,2.7-48.2c6.5-5.9,14.6-8.8,22.7-8.8c9.4,0,18.7,3.8,25.4,11.4l239.9,267.8
		C408.7,386.9,407.5,408.5,393.4,421.1z M343.7,301.6l-57-63.6c10.2,4.8,20.2,10,29.2,16.9c14.5,11,24.5,24.9,27.3,43.2
		C343.5,299.3,343.6,300.4,343.7,301.6z M234,126.9c1.7-0.3,1.9-0.9,1.8-2.6c-0.2-3.6-0.1-7.3-0.1-10.9c0-9.4,0-18.7,0-28.1
		c0-0.8,0-1.5,0-2.4c13.7,0,27.2,0,40.9,0c0,13.5,0,26.8,0,40.2c5,0.3,9.7,0.6,14.5,1c13.9,1,27.4,3.6,40.5,8.5
		c0.6,0.2,1.4,1.1,1.4,1.7c0.1,17.3,0.1,34.6,0.1,52.2c-3.2-1.8-6.2-3.7-9.3-5.3c-12-6.2-24.7-9.8-38.1-11.5
		c-7.8-1-15.7-1.3-23.5-0.3c-10,1.2-19.6,3.6-27,11l-35.8-40c2.9-1.9,6-3.7,9.3-5.3C216.8,131.3,225.2,128.5,234,126.9z M276.6,386
		c0,14.4,0,28.6,0,43c-13.6,0-27.1,0-40.8,0c0-13.4,0-26.8,0-40.2c-4.5-0.3-8.9-0.5-13.2-0.9c-17.7-1.6-35-4.7-51.3-12.4
		c-1.6-0.7-2.1-1.5-2.1-3.3c0.1-18.2,0.1-36.3,0.1-54.9c1.6,1.3,3.1,2.3,4.5,3.4c15.3,11.8,32.7,18.9,51.8,21.6
		c12,1.7,24.1,1.7,35.9-1.6c0.7-0.2,1.5-0.4,2.2-0.7l35.3,39.4c-6.6,2.7-13.5,4.6-20.5,5.9C277.9,385.5,277.3,385.8,276.6,386z"/>
</g>
</svg>
