<?xml version="1.0" encoding="utf-8"?>
<!-- Generator: Adobe Illustrator 22.1.0, SVG Export Plug-In . SVG Version: 6.00 Build 0)  -->
<svg version="1.1" id="Layer_1" xmlns="http://www.w3.org/2000/svg" xmlns:xlink="http://www.w3.org/1999/xlink" x="0px" y="0px"
	 viewBox="0 0 512 501.1" style="enable-background:new 0 0 512 501.1;" xml:space="preserve">
<style type="text/css">
	.st0{fill:#25DD8B;}
</style>
<path class="st0" d="M136.9,154.7c8.1,0,15-6,16.1-14c6.9-50.8,50.4-89.9,103-89.9h0c57.4,0,104,46.5,104,104v84.5H191.6H152h-50
	c-19.8,0-35.8,16-35.8,35.8v190.3c0,19.8,16,35.8,35.8,35.8h308c19.8,0,35.8-16,35.8-35.8V275c0-19.8-16-35.8-35.8-35.8h0.6v-84.6
	C410.6,69.2,341.4,0,256,0h0c-79.3,0-144.7,59.7-153.6,136.6c-1.1,9.6,6.4,18,16.1,18.1L136.9,154.7z M277.5,374.6v25.6
	c0,11.9-9.6,21.5-21.5,21.5h0c-11.9,0-21.5-9.6-21.5-21.5v-25.6c-9.6-6.8-15.9-18-15.9-30.6c0-20.7,16.8-37.4,37.4-37.4
	c20.7,0,37.4,16.8,37.4,37.4C293.4,356.6,287.2,367.8,277.5,374.6z"/>
</svg>
