<?xml version="1.0" encoding="utf-8"?>
<!-- Generator: Adobe Illustrator 25.0.1, SVG Export Plug-In . SVG Version: 6.00 Build 0)  -->
<svg version="1.1" id="Layer_1" xmlns="http://www.w3.org/2000/svg" xmlns:xlink="http://www.w3.org/1999/xlink" x="0px" y="0px"
	 viewBox="0 0 512.1 512" style="enable-background:new 0 0 512.1 512;" xml:space="preserve">
<style type="text/css">
	.st0{fill:#76B82A;}
	.st1{fill:#FFFFFF;}
</style>
<path class="st0" d="M256,0C115-0.1,2.1,113.7,0,251.7C-2.2,396,113.9,511.2,254.3,512c142.9,0.8,257.1-114.4,257.8-254.6
	C512.8,114.4,396.7-0.4,256,0z"/>
<g>
	<path class="st1" d="M309,330.1c8.3,2.1,17.8,3.2,27.8,3.2c33.5,0,61-12.7,60.8-31.2c-0.1-3.4-0.1-6.6-0.1-9.8
		c-1,1.4-2.1,2.7-3.4,4c-1.6,1.6-3.3,3.1-5.3,4.4c-10.7,9.6-30.1,16.1-52,16.1c-9.9,0-18.5-1-26-2.7c0.1-2.4,0-4.8-0.1-7.1
		c7.9,1.8,16.7,2.8,26.1,2.8c33.5,0,61-12.7,60.7-31.3c0-3.8-0.1-7.5-0.1-11.1c-1,1.4-2.1,2.8-3.4,4c-0.2,0.1-0.4,0.3-0.5,0.5
		c-8.8,12.5-31,21.3-56.8,21.3c-10.8,0-20.1-1.1-28.1-3.2c0.2,0.9,0.3,1.7,0.4,2.6c-1-4.3-2.3-8.4-4.1-12.2
		c9.3,2.8,20.2,4.4,31.9,4.4c33.5,0,61-12.7,60.7-31.3c-0.1-3.7-0.1-7.2-0.1-10.7c-1.6,2.5-3.7,4.9-6.3,7.1
		c-10,10.9-30.7,18.4-54.3,18.4c-28.7,0-47.1-7.9-56.6-20.5c-1.6-1.7-3-3.4-4.1-5.2v6.5c-9-5.9-18.6-10.5-28.4-14.9
		c-10.2-4.6-20.5-9.2-30.6-14.2c-6.5-3.2-12.3-7.5-16.9-13.3c-6.4-8.2-6-19.8,1.3-27.2c7.5-7.6,17.2-10.1,27.3-11.3
		c7.8-1,15.7-0.7,23.5,0.3c13.4,1.7,26.1,5.3,38.1,11.5c3.1,1.6,6.1,3.5,9.3,5.3c0-17.6,0-34.9-0.1-52.2c0-0.6-0.8-1.5-1.4-1.7
		c-13.1-4.9-26.6-7.5-40.5-8.5c-4.8-0.4-9.5-0.7-14.5-1c0-13.4,0-26.7,0-40.2c-13.7,0-27.2,0-40.9,0c0,0.9,0,1.6,0,2.4
		c0,9.4,0,18.7,0,28.1c0,3.6-0.1,7.3,0.1,10.9c0.1,1.7-0.1,2.3-1.8,2.6c-8.8,1.6-17.2,4.4-25.3,8.3c-15.7,7.7-27.9,18.8-35,35
		c-5.7,13.2-6.6,26.9-4.7,41c2.4,17.4,11,31.3,24.3,42.5c9.8,8.3,21,14.3,32.7,19.4c11.3,5,22.6,9.9,33.7,15.3
		c7.6,3.8,14.5,8.7,19.6,15.7c6.8,9.5,5.4,21.9-3.5,29.5c-4.2,3.5-9.1,5.7-14.3,7.1c-11.8,3.3-23.9,3.3-35.9,1.6
		c-19.1-2.7-36.5-9.8-51.8-21.6c-1.4-1.1-2.9-2.1-4.5-3.4c0,18.6,0,36.7-0.1,54.9c0,1.8,0.5,2.6,2.1,3.3
		c16.3,7.7,33.6,10.8,51.3,12.4c4.3,0.4,8.7,0.6,13.2,0.9c0,13.4,0,26.8,0,40.2c13.7,0,27.2,0,40.8,0c0-14.4,0-28.6,0-43
		c0.7-0.2,1.3-0.5,1.9-0.6c10.3-1.9,20.1-5.1,29.4-10c12-6.4,21.6-15.2,28.1-27.2c3-5.7,5.1-11.5,6.5-17.4
		C309,329.9,309,330,309,330.1z"/>
	<path class="st1" d="M276.1,229.1c0,18.5,27.2,33.5,60.8,33.5c33.5,0,60.8-15.1,60.8-33.5c0-18.5-27.2-33.5-60.8-33.5
		C303.3,195.6,276.1,210.7,276.1,229.1z"/>
	<path class="st1" d="M394.5,319.5c-8.1,13.2-31,22.7-57.7,22.7c-10.6,0-19.8-1.1-27.7-3.1c0,0.1-4.9-1.8,0,0.4l-6.7-2.1
		c0.1,3.6-3.8,12.7-5.4,16c8.8,2.5,28.8,5.5,39.8,5.5c33.5,0,61-12.7,60.8-31.3c0-4-0.1-7.9-0.1-11.6
		C396.6,317.1,395.7,318.3,394.5,319.5z"/>
</g>
<path class="st0" d="M245.7,430.4h-45.8v-40.4c-0.6,0-1.2-0.1-1.8-0.1c-3-0.2-6.1-0.4-9.1-0.6c-21.7-2-37.8-5.9-52.1-12.6
	c-2.5-1.1-3.5-2.7-3.5-5.6c0.1-18.2,0.1-36,0.1-54.9V311l4.1,3.3c0.9,0.7,1.7,1.3,2.5,1.9c0.7,0.5,1.3,1,1.9,1.5
	c14.7,11.3,31.7,18.4,50.6,21.1c13.1,1.9,24.5,1.4,34.9-1.5c5.4-1.5,9.8-3.6,13.4-6.6c7.8-6.7,9.1-17.7,3.1-26.1
	c-4.3-5.9-10.4-10.8-18.7-14.9c-9.4-4.6-19.2-8.9-28.7-13.1l-4.9-2.2c-14-6.1-24.6-12.4-33.3-19.8c-14.3-12.1-22.8-26.9-25.2-44.1
	c-2.1-15.9-0.5-29.8,4.9-42.3c7-15.9,18.8-27.7,36.2-36.3c8.3-4,17-6.9,25.7-8.5c0,0,0,0,0,0c-0.2-2.8-0.1-5.6-0.1-8.4
	c0-0.9,0-1.8,0-2.7v-33h45.9v40.3c4.4,0.3,8.2,0.5,12.2,0.9c15,1.1,28.5,3.9,41.2,8.6c1.4,0.5,3,2.2,3,4c0.1,17.3,0.1,34.2,0.1,52.2
	v4.3l-3.7-2.1c-1.2-0.7-2.4-1.4-3.6-2.1c-1.9-1.1-3.8-2.2-5.6-3.2c-11.2-5.8-23.4-9.5-37.3-11.2c-8.5-1.1-16-1.2-22.9-0.3
	c-8.6,1-18.4,3.1-25.8,10.6c-6.3,6.4-6.8,16.7-1.1,23.9c4.1,5.1,9.5,9.4,16,12.6c9.2,4.6,18.7,8.8,27.9,13l2.6,1.2
	c11.8,5.3,24.2,11.2,35.4,19.8c16.3,12.4,25.5,27,28.3,44.8c2.8,20.1,0.3,37-7.6,51.7l0,0c-6.5,12-16,21.2-29.1,28.2
	c-9.2,4.8-19,8.2-30,10.2V430.4z M204.9,425.4h35.8V383l1.8-0.5c0.2-0.1,0.4-0.1,0.6-0.2c0.4-0.2,1-0.3,1.5-0.4
	c10.5-1.9,19.9-5.1,28.6-9.7c12.2-6.5,21-15.1,27.1-26.2c7.4-13.7,9.7-29.6,7-48.6c-2.5-16.4-11.1-30-26.3-41.6
	c-10.8-8.3-22.9-14-34.4-19.2l-2.6-1.2c-9.2-4.2-18.8-8.5-28.1-13.1c-7.2-3.6-13.2-8.3-17.7-14c-7.2-9.2-6.6-22.3,1.5-30.5
	c8.5-8.6,19.3-10.9,28.8-12c7.3-0.9,15.2-0.8,24.1,0.3c14.4,1.8,27.2,5.7,38.9,11.8c1.9,1,3.8,2.1,5.7,3.2c0-16.2,0-31.6-0.1-47.3
	c-12.2-4.5-25.1-7.2-39.6-8.3c-4.6-0.4-9.1-0.7-14.5-1l-2.4-0.1V84.3h-35.9v28c0,0.9,0,1.8,0,2.7c0,2.7,0,5.4,0.1,8
	c0.1,1.3,0.3,4.5-3.9,5.2c-8.4,1.5-16.7,4.2-24.6,8.1c-16.3,8-27.3,19-33.8,33.8c-5.1,11.7-6.5,24.7-4.5,39.7
	c2.2,16.1,9.9,29.5,23.4,40.9c8.4,7.1,18.6,13.1,32.1,19l4.9,2.2c9.5,4.2,19.3,8.5,28.9,13.2c9,4.5,15.7,9.9,20.5,16.5
	c7.6,10.6,6,24.5-3.9,32.9c-4.2,3.5-9.2,6-15.3,7.6c-11,3.1-23.1,3.6-36.9,1.7c-19.8-2.8-37.6-10.2-53-22.1
	c-0.2-0.1-0.3-0.2-0.5-0.4c0,17,0,33.3-0.1,49.9c0,0.5,0.1,0.7,0.1,0.7c0,0,0.1,0.1,0.5,0.3c13.8,6.5,29.4,10.3,50.5,12.2
	c2.9,0.3,5.8,0.4,8.9,0.6c1.4,0.1,2.8,0.2,4.2,0.3l2.3,0.2V425.4z M297.3,133.8C297.3,133.9,297.3,133.9,297.3,133.8
	C297.3,133.9,297.3,133.9,297.3,133.8z M297.1,133.2C297.1,133.2,297.1,133.2,297.1,133.2C297.1,133.2,297.1,133.2,297.1,133.2z"/>
</svg>
