<?xml version="1.0" encoding="utf-8"?>
<!-- Generator: Adobe Illustrator 25.0.1, SVG Export Plug-In . SVG Version: 6.00 Build 0)  -->
<svg version="1.1" id="Layer_1" xmlns="http://www.w3.org/2000/svg" xmlns:xlink="http://www.w3.org/1999/xlink" x="0px" y="0px"
	 viewBox="0 0 512.1 512" style="enable-background:new 0 0 512.1 512;" xml:space="preserve">
<style type="text/css">
	.st0{fill:#76B82A;}
</style>
<g>
	<path class="st0" d="M256,0C115-0.1,2.1,113.7,0,251.7C-2.2,396,113.9,511.2,254.3,512c142.9,0.8,257.1-114.4,257.8-254.6
		C512.8,114.4,396.7-0.4,256,0z M313.5,307.6c-0.2-3.6-0.5-7.2-1-11c-0.3-2-0.7-4-1.2-6c7.4,1.7,15.8,2.6,25.4,2.6
		c25.8,0,48-8.8,56.8-21.3c0.1-0.2,0.3-0.4,0.5-0.5c1.3-1.2,2.4-2.6,3.4-4c0,3.6,0.1,7.3,0.1,11.1c0.3,18.6-27.2,31.3-60.7,31.3
		C328.5,309.8,320.7,309,313.5,307.6z M307.3,297.4c2.7,19,0.4,34.9-7,48.6c-6.1,11.1-14.9,19.7-27.1,26.2
		c-8.7,4.6-18.1,7.8-28.6,9.7c-0.5,0.1-1.1,0.2-1.5,0.4c-0.2,0.1-0.4,0.1-0.6,0.2l-1.8,0.5v42.4h-35.8h-0.3v-39.9l-2.3-0.2
		c-1.4-0.1-2.8-0.2-4.2-0.3c-3.1-0.2-6-0.3-8.9-0.6c-21.1-1.9-36.7-5.7-50.5-12.2c-0.4-0.2-0.5-0.3-0.5-0.3s-0.1-0.2-0.1-0.7
		c0.1-16.6,0.1-32.9,0.1-49.9c0.2,0.2,0.3,0.3,0.5,0.4c15.4,11.9,33.2,19.3,53,22.1c13.8,1.9,25.9,1.4,36.9-1.7
		c6.1-1.6,11.1-4.1,15.3-7.6c9.9-8.4,11.5-22.3,3.9-32.9c-4.8-6.6-11.5-12-20.5-16.5c-9.6-4.7-19.4-9-28.9-13.2l-4.9-2.2
		c-13.5-5.9-23.7-11.9-32.1-19c-13.5-11.4-21.2-24.8-23.4-40.9c-2-15-0.6-28,4.5-39.7c6.5-14.8,17.5-25.8,33.8-33.8
		c7.9-3.9,16.2-6.6,24.6-8.1c4.2-0.7,4-3.9,3.9-5.2c-0.1-2.6-0.1-5.3-0.1-8c0-0.9,0-1.8,0-2.7v-28h35.9v40.1l2.4,0.1
		c5.4,0.3,9.9,0.6,14.5,1c14.5,1.1,27.4,3.8,39.6,8.3c0.1,15.7,0.1,31.1,0.1,47.3c-1.9-1.1-3.8-2.2-5.7-3.2
		c-11.7-6.1-24.5-10-38.9-11.8c-8.9-1.1-16.8-1.2-24.1-0.3c-9.5,1.1-20.3,3.4-28.8,12c-8.1,8.2-8.7,21.3-1.5,30.5
		c4.5,5.7,10.5,10.4,17.7,14c9.3,4.6,18.9,8.9,28.1,13.1l2.6,1.2c11.5,5.2,23.6,10.9,34.4,19.2C296.2,267.4,304.8,281,307.3,297.4z
		 M336.8,284.8c-10.4,0-20.1-1.3-28.6-3.5c-3.6-8.6-9.1-16.3-16.7-23.3c10.5,6.5,25.4,10.3,45.3,10.3c23.6,0,44.3-7.5,54.3-18.4
		c2.6-2.2,4.7-4.6,6.3-7.1c0,3.5,0,7,0.1,10.7C397.8,272.1,370.3,284.8,336.8,284.8z M276.1,246.1v-3.5c1.1,1.8,2.5,3.5,4.1,5.2
		c0.7,0.9,1.4,1.8,2.2,2.7C280.3,248.9,278.2,247.5,276.1,246.1z M336.8,358.9c-9.5,0-25.7-2.2-35.7-4.5c1.3-2,2.6-4,3.8-6.1
		c1.5-2.9,2.9-5.8,4-8.9l0.2,0.1c-0.1,0-0.1-0.1-0.2-0.1c0-0.1,0.1-0.2,0.1-0.3c0,0,0.1,0,0.1,0c7.9,2,17.1,3.1,27.7,3.1
		c26.7,0,49.6-9.5,57.7-22.7c1.2-1.2,2.1-2.4,3-3.5c0,3.7,0.1,7.6,0.1,11.6C397.8,346.2,370.3,358.9,336.8,358.9z M336.8,333.3
		c-9,0-17.6-0.9-25.3-2.6c1.2-5.1,1.9-10.4,2-16c6.8,1.3,14.5,2.1,23.2,2.1c21.9,0,41.3-6.5,52-16.1c2-1.3,3.7-2.8,5.3-4.4
		c1.3-1.3,2.4-2.6,3.4-4c0,3.2,0,6.4,0.1,9.8C397.8,320.6,370.3,333.3,336.8,333.3z M336.9,262.6c-33.6,0-60.8-15-60.8-33.5
		c0-18.4,27.2-33.5,60.8-33.5c33.6,0,60.8,15,60.8,33.5C397.7,247.5,370.4,262.6,336.9,262.6z"/>
</g>
</svg>
