<?xml version="1.0" encoding="utf-8"?>
<!-- Generator: Adobe Illustrator 22.1.0, SVG Export Plug-In . SVG Version: 6.00 Build 0)  -->
<svg version="1.1" id="Layer_1" xmlns="http://www.w3.org/2000/svg" xmlns:xlink="http://www.w3.org/1999/xlink" x="0px" y="0px"
	 viewBox="0 0 512.1 512" style="enable-background:new 0 0 512.1 512;" xml:space="preserve">
<style type="text/css">
	.st0{fill:#F39C13;}
</style>
<path class="st0" d="M256,85c-94.2-0.1-169.6,75.9-171,168.1c-1.5,96.4,76.1,173.3,169.9,173.9c95.5,0.5,171.7-76.4,172.2-170.1
	C427.5,161.4,350,84.7,256,85z M309.4,317.6c-4.3,8-10.8,13.9-18.8,18.2c-6.2,3.3-12.8,5.4-19.6,6.7c-0.4,0.1-0.8,0.3-1.3,0.4
	c0,9.6,0,19.1,0,28.7c-9.1,0-18.1,0-27.3,0c0-9,0-17.9,0-26.9c-3-0.2-5.9-0.3-8.8-0.6c-11.8-1.1-23.4-3.1-34.3-8.3
	c-1.1-0.5-1.4-1-1.4-2.2c0.1-12.2,0.1-24.2,0.1-36.7c1.1,0.9,2.1,1.5,3,2.3c10.2,7.9,21.8,12.6,34.6,14.4c8,1.1,16.1,1.1,24-1.1
	c3.5-0.9,6.7-2.4,9.6-4.7c5.9-5.1,6.9-13.4,2.3-19.7c-3.4-4.7-8-7.9-13.1-10.5c-7.4-3.6-15-6.9-22.5-10.2c-7.8-3.4-15.3-7.4-21.8-13
	c-8.9-7.5-14.6-16.8-16.2-28.4c-1.3-9.4-0.7-18.6,3.1-27.4c4.7-10.8,12.9-18.2,23.4-23.4c5.4-2.6,11-4.5,16.9-5.5
	c1.1-0.2,1.3-0.6,1.2-1.7c-0.1-2.4-0.1-4.9-0.1-7.3c0-6.3,0-12.5,0-18.8c0-0.5,0-1,0-1.6c9.2,0,18.2,0,27.3,0c0,9,0,17.9,0,26.9
	c3.3,0.2,6.5,0.4,9.7,0.7c9.3,0.7,18.3,2.4,27.1,5.7c0.4,0.1,0.9,0.7,0.9,1.1c0.1,11.6,0.1,23.1,0.1,34.9c-2.1-1.2-4.1-2.5-6.2-3.5
	c-8-4.1-16.5-6.5-25.4-7.7c-5.2-0.7-10.5-0.9-15.7-0.2c-6.7,0.8-13.2,2.5-18.2,7.5c-4.9,4.9-5.1,12.7-0.9,18.2
	c3.1,3.9,6.9,6.7,11.3,8.9c6.7,3.3,13.6,6.4,20.4,9.5c8.1,3.7,16.2,7.5,23.3,13c9.7,7.3,16.4,16.6,18.2,28.9
	C315.9,295.7,315.1,307,309.4,317.6z"/>
<g>
	<path class="st0" d="M113.2,391.9c-33.8-40.7-67-80.5-100.5-120.7c-0.4,1.1-0.8,1.7-0.8,2.4c-0.7,9.3-1.3,18.6-2,27.8
		c-0.8,10.7-1.7,21.5-2.6,32.2c-0.8,10.3-1.6,20.6-2.6,30.9c-1,11.3-2.2,22.7-3.1,34c-0.6,6.7-0.9,13.5-1.3,20.2
		c-0.2,2.7-0.5,5.4-0.1,8.4c12.4-13.7,24.8-27.3,37.2-40.9c5.6,8.6,11,17.2,16.7,25.6c9.6,14.1,21.1,26.5,33.7,37.9
		c27.5,24.9,59.1,42.7,94.9,52.6c12.2,3.4,24.7,5.5,37.3,7.2c10.8,1.4,21.7,2,32.6,2c20.6,0,40.8-3,60.7-8.5
		c29.5-8.1,56.4-21.5,80.6-40c13.8-10.6,26.4-22.6,37.6-36c20.1-24.1,34.6-51.2,43.1-81.5c1.2-4.2,2.1-8.4,2.6-12.7
		c-3.6,6.6-6.9,13.5-11,19.7c-7.6,11.5-15.3,23.1-23.9,34c-7.2,9.1-15.3,17.7-23.7,25.7c-13.5,12.9-28.5,24-44.7,33.4
		c-17.8,10.4-36.6,18.7-56.5,23.9c-11.1,2.9-22.5,4.8-33.8,6.9c-14.2,2.6-28.5,2.4-42.8,1.8c-18.4-0.8-36.5-3.8-54.2-9
		c-28-8.1-53.5-21.1-76.8-38.6c-12.9-9.7-24.9-20.4-35.5-32.7c-4.9-5.7-9.8-11.5-14.7-17.2c0.2-0.3,0.3-0.5,0.5-0.8
		C77.4,384,94.8,387.8,113.2,391.9z"/>
	<path class="st0" d="M20.5,192.6c2.2-4.9,4.4-9.8,6.7-14.7c8.3-17.3,18.4-33.5,30.2-48.8c8.8-11.4,18.7-21.8,29.2-31.5
		c13-12.1,27.3-22.4,42.6-31.3c21.8-12.6,44.9-21.6,69.5-26.9c9-1.9,18.2-3.2,27.3-4c10-0.9,20.1-1.5,30.2-1.3
		c21.2,0.4,42,4,62.3,10.2c25.6,7.8,49.2,19.9,70.8,35.5c12.4,8.9,23.8,19.1,34.2,30.3c14.6,15.8,27.1,33,37.6,52.6
		c-14.1-4.7-27.8-9.1-41.8-13.8c23.6,34.7,46.9,69,70.6,103.9c7.5-41.3,14.8-81.9,22.3-123.5c-11.5,10.3-22.3,20.1-32.7,29.5
		c-5.4-11.5-10.4-23-16.2-34.2c-6.3-12.1-13.9-23.5-22.8-33.9c-7-8.2-14.3-16.2-22-23.9c-13.3-13.3-28.4-24.1-44.7-33.5
		C355.2,22.6,335.6,14.2,314.7,9c-10.9-2.7-21.9-4.8-33-6.2c-10.6-1.3-21.3-1.8-32-2c-11.7-0.2-23.3,1.3-35,2.9
		c-16.7,2.4-32.8,6.8-48.5,12.7c-20.1,7.6-38.9,17.9-56.2,30.6C98.5,55.7,87.7,65.1,78,75.5C65.4,89,54.7,103.7,45.6,119.8
		c-10.8,19.1-18.5,39.3-23.3,60.7c-0.9,4-1.4,8-2.2,12C20.2,192.5,20.4,192.6,20.5,192.6z"/>
</g>
</svg>
